<svg width="1080" height="1080" viewBox="0 0 1080 1080" fill="none" xmlns="http://www.w3.org/2000/svg">
<rect width="1080" height="1080" rx="540" fill="#0E0E0E"/>
<g clip-path="url(#clip0_179_1362)">
<g clip-path="url(#clip1_179_1362)">
<path d="M554.86 396.724C554.86 405.431 548.007 412.5 539.57 412.5C531.133 412.5 524.25 405.461 524.25 396.724C524.25 387.988 539.54 364 539.54 364C539.54 364 554.86 388.018 554.86 396.724Z" fill="#DD9951"/>
<path d="M565.305 378.512C564.566 378.019 563.662 377.835 562.788 378C561.913 378.166 561.14 378.666 560.637 379.393C560.133 380.121 559.94 381.016 560.099 381.884C560.258 382.752 560.756 383.522 561.485 384.028C572.051 391.217 578.359 403.082 578.359 415.766C578.359 418.157 578.127 420.494 577.704 422.766L577.701 422.765H577.691C575.271 422.786 572.99 423.875 571.42 425.756C570.303 426.849 569.641 427.42 568.246 427.42C566.851 427.42 566.167 426.779 565.132 425.809L565.068 425.748C564.759 425.373 564.417 425.025 564.046 424.709C562.366 423.276 560.243 422.599 558.06 422.799C555.886 423 553.92 424.05 552.519 425.759C551.406 426.85 550.743 427.42 549.349 427.42C547.95 427.42 547.26 426.769 546.218 425.785L546.182 425.751C545.874 425.377 545.534 425.03 545.164 424.716C543.483 423.28 541.352 422.596 539.174 422.8C536.996 422.999 535.027 424.05 533.622 425.76C532.508 426.85 531.846 427.42 530.462 427.42C529.062 427.42 528.373 426.77 527.33 425.785L527.294 425.751C526.987 425.377 526.646 425.031 526.277 424.716C524.595 423.28 522.464 422.596 520.286 422.8C518.107 423 516.137 424.052 514.732 425.763C513.63 426.853 512.974 427.422 511.574 427.422C510.19 427.422 509.507 426.782 508.473 425.813L508.402 425.747C506.833 423.873 504.555 422.788 502.13 422.767C501.89 422.77 501.653 422.813 501.427 422.895C500.978 420.545 500.751 418.159 500.748 415.767C500.748 403.186 506.977 391.376 517.408 384.176C518.122 383.661 518.604 382.889 518.75 382.026C518.896 381.163 518.696 380.278 518.191 379.56C517.687 378.841 516.919 378.348 516.051 378.185C515.184 378.021 514.286 378.201 513.551 378.686C501.309 387.135 494 400.998 494 415.766C494 440.664 514.435 460.921 539.554 460.921C564.672 460.921 585.108 440.664 585.108 415.766C585.108 400.876 577.705 386.949 565.305 378.512Z" fill="#DD9951"/>
</g>
</g>
<line x1="89" y1="424.578" x2="464.577" y2="424.578" stroke="white" stroke-width="3.46154"/>
<line x1="615.154" y1="424.578" x2="990.731" y2="424.578" stroke="white" stroke-width="3.46154"/>
<path d="M131.058 486.272H149.404C157.481 486.272 164.289 487.483 169.827 489.907C175.481 492.33 179.75 495.733 182.635 500.118C185.519 504.387 186.962 509.407 186.962 515.176C186.962 520.022 186.039 524.291 184.193 527.983C182.346 531.56 179.981 534.503 177.096 536.81C174.212 539.003 171.154 540.56 167.923 541.483C174.039 542.407 179.289 544.426 183.673 547.541C188.173 550.657 191.577 554.58 193.885 559.31C196.308 563.926 197.519 569.118 197.519 574.887C197.519 581.349 195.962 587.06 192.846 592.022C189.731 596.868 185.116 600.676 179 603.445C173 606.099 165.731 607.426 157.193 607.426H137.981C137.981 607.426 137.981 606.907 137.981 605.868C138.096 604.83 138.154 603.791 138.154 602.753C138.154 601.714 138.154 601.195 138.154 601.195H156.5C162.5 601.195 167.577 600.157 171.731 598.08C175.885 595.887 179.058 592.714 181.25 588.56C183.443 584.407 184.539 579.445 184.539 573.676C184.539 567.214 183.269 561.964 180.731 557.926C178.308 553.887 175.135 550.83 171.212 548.753C167.289 546.676 163.019 545.291 158.404 544.599C153.904 543.791 149.577 543.387 145.423 543.387V541.83C148.077 541.83 151.019 541.541 154.25 540.964C157.481 540.387 160.596 539.233 163.596 537.503C166.596 535.772 169.077 533.233 171.039 529.887C173 526.426 173.981 521.926 173.981 516.387C173.981 511.195 173 506.753 171.039 503.06C169.193 499.368 166.366 496.599 162.558 494.753C158.866 492.791 154.25 491.81 148.712 491.81H132.789C132.789 491.695 132.616 491.233 132.269 490.426C132.039 489.503 131.75 488.58 131.404 487.657C131.173 486.733 131.058 486.272 131.058 486.272ZM139.539 486.272V607.426H128.289V486.272H139.539ZM128.808 594.791V607.426H114.962L115.135 605.695C115.366 605.695 115.712 605.695 116.173 605.695C116.75 605.695 117.096 605.695 117.212 605.695C120.212 605.695 122.808 604.657 125 602.58C127.193 600.387 128.289 597.791 128.289 594.791H128.808ZM128.808 498.907H128.289C128.289 495.907 127.193 493.368 125 491.291C122.808 489.099 120.212 488.003 117.212 488.003C117.096 488.003 116.75 488.003 116.173 488.003C115.712 488.003 115.366 488.003 115.135 488.003L114.962 486.272H128.808V498.907ZM247.742 503.58V607.426H236.665V503.58H247.742ZM294.299 602.06L293.953 607.426H247.395V602.06H294.299ZM303.992 582.676L294.472 607.426H268.165L274.049 602.06C279.818 602.06 284.434 601.253 287.895 599.637C291.472 597.907 294.357 595.599 296.549 592.714C298.742 589.714 300.645 586.368 302.261 582.676H303.992ZM237.011 596.349L239.261 607.426H224.203V605.695C224.203 605.695 224.607 605.695 225.415 605.695C226.222 605.695 226.626 605.695 226.626 605.695C229.511 605.695 231.876 604.772 233.722 602.926C235.568 601.08 236.549 598.887 236.665 596.349H237.011ZM247.222 514.657V503.58H260.03V505.31C260.03 505.31 259.684 505.31 258.992 505.31C258.299 505.31 257.953 505.31 257.953 505.31C255.184 505.31 252.761 506.233 250.684 508.08C248.722 509.81 247.742 512.003 247.742 514.657H247.222ZM237.011 514.657H236.665C236.549 512.003 235.511 509.81 233.549 508.08C231.588 506.233 229.165 505.31 226.28 505.31C226.28 505.31 225.934 505.31 225.242 505.31C224.549 505.31 224.203 505.31 224.203 505.31V503.58H237.011V514.657ZM342.201 503.58V569.003C342.201 580.195 345.028 589.022 350.682 595.483C356.451 601.945 364.297 605.176 374.22 605.176C385.182 605.176 393.778 602.118 400.009 596.003C406.355 589.887 409.528 581.522 409.528 570.907V503.58H417.489V570.907C417.489 582.907 413.624 592.426 405.893 599.464C398.278 606.387 387.778 609.849 374.393 609.849C361.124 609.849 350.566 606.387 342.72 599.464C334.989 592.541 331.124 583.08 331.124 571.08V503.58H342.201ZM331.47 503.58V512.753H331.124C331.009 510.676 330.143 508.945 328.528 507.56C327.028 506.06 325.124 505.31 322.816 505.31C322.816 505.31 322.355 505.31 321.432 505.31C320.624 505.31 320.22 505.31 320.22 505.31V503.58H331.47ZM353.105 503.58V505.31C353.105 505.31 352.643 505.31 351.72 505.31C350.912 505.31 350.509 505.31 350.509 505.31C348.316 505.31 346.355 506.06 344.624 507.56C343.009 508.945 342.201 510.676 342.201 512.753H341.855V503.58H353.105ZM409.874 503.58V512.753H409.528C409.528 510.676 408.72 508.945 407.105 507.56C405.489 506.06 403.528 505.31 401.22 505.31C401.22 505.31 400.759 505.31 399.836 505.31C399.028 505.31 398.624 505.31 398.624 505.31V503.58H409.874ZM428.393 503.58V505.31C428.393 505.31 427.932 505.31 427.009 505.31C426.201 505.31 425.797 505.31 425.797 505.31C423.605 505.31 421.701 506.06 420.086 507.56C418.47 508.945 417.605 510.676 417.489 512.753H417.143V503.58H428.393ZM477.927 503.58V607.426H466.85V503.58H477.927ZM524.485 602.06L524.139 607.426H477.581V602.06H524.485ZM516.35 552.907V558.099H477.581V552.907H516.35ZM524.312 503.58V508.945H477.581V503.58H524.312ZM534.177 582.676L524.658 607.426H498.35L504.235 602.06C510.004 602.06 514.619 601.253 518.081 599.637C521.658 597.907 524.542 595.599 526.735 592.714C528.927 589.714 530.831 586.368 532.446 582.676H534.177ZM516.35 557.753V567.618H514.446V565.368C514.446 563.407 513.869 561.733 512.716 560.349C511.562 558.849 509.773 558.099 507.35 558.099V557.753H516.35ZM516.35 543.387V553.253H507.35V552.907C509.773 552.907 511.562 552.214 512.716 550.83C513.869 549.33 514.446 547.599 514.446 545.637V543.387H516.35ZM524.312 508.426V520.368H522.408V517.772C522.408 515.349 521.6 513.272 519.985 511.541C518.485 509.81 516.408 508.945 513.754 508.945V508.426H524.312ZM524.312 500.81V505.31L504.581 503.58C508.158 503.58 511.966 503.291 516.004 502.714C520.042 502.022 522.812 501.387 524.312 500.81ZM467.196 596.349L469.446 607.426H454.389V605.695C454.389 605.695 454.792 605.695 455.6 605.695C456.408 605.695 456.812 605.695 456.812 605.695C459.696 605.695 462.062 604.772 463.908 602.926C465.754 601.08 466.735 598.887 466.85 596.349H467.196ZM467.196 514.483H466.85C466.735 511.83 465.754 509.637 463.908 507.907C462.062 506.176 459.696 505.31 456.812 505.31C456.812 505.31 456.408 505.31 455.6 505.31C454.792 505.31 454.389 505.31 454.389 505.31V503.58H469.446L467.196 514.483ZM670.544 501.157L672.102 512.407L631.602 592.195C631.602 592.195 631.14 593.176 630.217 595.137C629.409 597.099 628.544 599.464 627.621 602.233C626.698 604.887 626.006 607.426 625.544 609.849H623.813L621.39 598.945L670.544 501.157ZM569.121 595.83V607.426H551.121V605.695C551.121 605.695 551.525 605.695 552.333 605.695C553.256 605.695 553.717 605.695 553.717 605.695C556.717 605.695 559.313 604.83 561.506 603.099C563.813 601.368 565.14 598.945 565.486 595.83H569.121ZM574.313 598.426C574.198 600.157 574.602 601.83 575.525 603.445C576.448 604.945 578.179 605.753 580.717 605.868H583.14V607.426H573.275V598.426H574.313ZM578.986 501.157H580.717L584.179 511.368L573.448 607.426H563.929L578.986 501.157ZM580.717 501.157L627.794 591.676L623.813 609.849L577.429 520.195L580.717 501.157ZM672.102 501.157L687.679 607.426H674.525L663.275 520.368L670.544 501.157H672.102ZM682.486 595.83H685.948C686.409 598.945 687.794 601.368 690.102 603.099C692.409 604.83 695.006 605.695 697.89 605.695C697.89 605.695 698.294 605.695 699.102 605.695C700.025 605.695 700.486 605.695 700.486 605.695V607.426H682.486V595.83ZM673.313 598.426H674.525V607.426H664.486V605.868H667.083C669.736 605.753 671.467 604.887 672.275 603.272C673.198 601.657 673.544 600.041 673.313 598.426ZM746.686 503.58V607.426H735.782V503.58H746.686ZM736.301 596.349V607.426H721.59V605.695C721.59 605.695 721.993 605.695 722.801 605.695C723.609 605.695 724.013 605.695 724.013 605.695C727.243 605.695 729.955 604.772 732.147 602.926C734.455 601.08 735.667 598.887 735.782 596.349H736.301ZM746.167 596.349H746.686C746.801 598.887 747.955 601.08 750.147 602.926C752.455 604.772 755.224 605.695 758.455 605.695C758.455 605.695 758.801 605.695 759.493 605.695C760.301 605.695 760.705 605.695 760.705 605.695L760.878 607.426H746.167V596.349ZM746.167 514.657V503.58H760.878L760.705 505.31C760.705 505.31 760.301 505.31 759.493 505.31C758.801 505.31 758.455 505.31 758.455 505.31C755.224 505.31 752.455 506.233 750.147 508.08C747.955 509.81 746.801 512.003 746.686 514.657H746.167ZM736.301 514.657H735.782C735.667 512.003 734.455 509.81 732.147 508.08C729.955 506.233 727.243 505.31 724.013 505.31C723.897 505.31 723.436 505.31 722.628 505.31C721.936 505.31 721.59 505.31 721.59 505.31V503.58H736.301V514.657ZM821.098 501.157C824.329 501.157 827.156 501.272 829.579 501.503C832.002 501.733 834.079 502.022 835.81 502.368C837.656 502.599 839.213 502.945 840.483 503.407C841.867 503.753 843.079 504.099 844.117 504.445L844.29 521.58H842.213C842.213 516.849 840.598 513.157 837.367 510.503C834.136 507.733 829.117 506.349 822.31 506.349C816.54 506.349 811.579 507.964 807.425 511.195C803.386 514.31 801.425 518.176 801.54 522.791C801.54 524.291 801.713 525.849 802.06 527.464C802.521 528.964 803.213 530.464 804.136 531.964C805.175 533.464 806.56 534.964 808.29 536.464L843.252 563.464C845.906 565.657 847.867 568.483 849.136 571.945C850.406 575.291 851.098 578.637 851.213 581.983C851.329 587.06 850.002 591.733 847.233 596.003C844.463 600.272 840.713 603.676 835.983 606.214C831.367 608.637 826.233 609.849 820.579 609.849C817.233 609.849 813.598 609.56 809.675 608.983C805.867 608.407 802.29 607.541 798.944 606.387C795.598 605.118 792.829 603.56 790.636 601.714C790.29 600.099 790.117 598.08 790.117 595.657C790.117 593.118 790.29 590.464 790.636 587.695C791.098 584.926 791.675 582.445 792.367 580.253H794.444C793.983 585.445 794.733 589.887 796.694 593.58C798.656 597.272 801.54 600.099 805.348 602.06C809.156 603.907 813.598 604.772 818.675 604.657C825.829 604.426 831.425 602.637 835.463 599.291C839.617 595.83 841.694 591.272 841.694 585.618C841.694 582.849 841.175 580.368 840.136 578.176C839.213 575.868 837.656 573.733 835.463 571.772L800.848 545.118C797.617 542.349 795.425 539.291 794.271 535.945C793.117 532.599 792.54 529.426 792.54 526.426C792.54 521.695 793.81 517.426 796.348 513.618C798.886 509.81 802.29 506.81 806.56 504.618C810.944 502.31 815.79 501.157 821.098 501.157ZM843.944 502.714L844.117 505.83H831.829V502.714H843.944ZM926.66 504.099V607.426H915.41V504.099H926.66ZM968.545 503.407V508.599H873.525V503.407H968.545ZM968.545 508.253V520.195H966.641V517.426C966.641 515.003 965.833 512.983 964.218 511.368C962.718 509.637 960.641 508.714 957.987 508.599V508.253H968.545ZM968.545 500.637V505.137L949.16 503.407C951.468 503.407 953.891 503.291 956.429 503.06C959.083 502.714 961.506 502.31 963.699 501.849C965.891 501.387 967.506 500.983 968.545 500.637ZM915.756 596.349V607.426H903.122V605.695C903.237 605.695 903.583 605.695 904.16 605.695C904.852 605.695 905.199 605.695 905.199 605.695C907.968 605.695 910.333 604.772 912.295 602.926C914.256 601.08 915.295 598.887 915.41 596.349H915.756ZM926.141 596.349H926.66C926.775 598.887 927.814 601.08 929.775 602.926C931.737 604.772 934.102 605.695 936.872 605.695C936.872 605.695 937.16 605.695 937.737 605.695C938.429 605.695 938.775 605.695 938.775 605.695V607.426H926.141V596.349ZM884.083 508.253V508.599C881.429 508.714 879.295 509.637 877.679 511.368C876.179 512.983 875.429 515.003 875.429 517.426V520.195H873.525V508.253H884.083ZM873.525 500.637C874.564 500.983 876.122 501.387 878.199 501.849C880.391 502.31 882.814 502.714 885.468 503.06C888.122 503.291 890.602 503.407 892.91 503.407L873.525 505.137V500.637Z" fill="white"/>
<path d="M131.231 693.65L119.634 672.794H124.783L134.086 690.059L132.788 690.145L142.005 672.794H147.11L135.428 693.65V704.078H131.231V693.65ZM152.388 694.948C152.388 693.16 152.806 691.544 153.642 690.102C154.508 688.66 155.69 687.52 157.19 686.684C158.69 685.847 160.392 685.429 162.296 685.429C164.258 685.429 165.974 685.847 167.445 686.684C168.916 687.52 170.056 688.66 170.863 690.102C171.671 691.544 172.075 693.16 172.075 694.948C172.075 696.737 171.671 698.367 170.863 699.838C170.056 701.28 168.902 702.419 167.402 703.256C165.931 704.093 164.214 704.511 162.253 704.511C160.349 704.511 158.647 704.121 157.147 703.343C155.676 702.535 154.508 701.424 153.642 700.011C152.806 698.569 152.388 696.881 152.388 694.948ZM156.412 694.992C156.412 696.145 156.671 697.198 157.19 698.15C157.71 699.073 158.402 699.809 159.267 700.357C160.162 700.905 161.142 701.179 162.21 701.179C163.335 701.179 164.33 700.905 165.195 700.357C166.089 699.809 166.782 699.073 167.272 698.15C167.763 697.198 168.008 696.145 168.008 694.992C168.008 693.838 167.763 692.799 167.272 691.876C166.782 690.924 166.089 690.174 165.195 689.626C164.33 689.049 163.335 688.761 162.21 688.761C161.113 688.761 160.118 689.049 159.224 689.626C158.359 690.203 157.666 690.968 157.147 691.919C156.657 692.843 156.412 693.867 156.412 694.992ZM189.899 704.77C188.283 704.77 186.942 704.28 185.875 703.299C184.836 702.29 184.288 700.992 184.23 699.405V686.165H188.254V697.977C188.312 698.958 188.586 699.751 189.076 700.357C189.596 700.963 190.403 701.28 191.5 701.309C192.509 701.309 193.403 701.02 194.182 700.444C194.99 699.838 195.639 699.03 196.129 698.02C196.62 696.982 196.865 695.814 196.865 694.516V686.165H200.889V704.078H197.211L196.865 699.665L197.081 700.444C196.735 701.28 196.201 702.03 195.48 702.694C194.788 703.328 193.966 703.833 193.014 704.208C192.062 704.583 191.024 704.77 189.899 704.77ZM218.149 686.165L218.538 691.357L218.322 690.665C218.784 689.569 219.447 688.645 220.312 687.895C221.207 687.117 222.13 686.525 223.082 686.121C224.062 685.689 224.913 685.472 225.635 685.472L225.418 689.453C224.062 689.367 222.865 689.626 221.827 690.232C220.817 690.838 220.01 691.645 219.404 692.655C218.827 693.665 218.538 694.746 218.538 695.9V704.078H214.558V686.165H218.149ZM275.108 678.376C274.041 677.828 272.872 677.352 271.603 676.948C270.334 676.544 269.093 676.343 267.882 676.343C266.209 676.343 264.867 676.732 263.858 677.511C262.877 678.29 262.387 679.328 262.387 680.626C262.387 681.607 262.704 682.444 263.339 683.136C263.973 683.799 264.81 684.376 265.848 684.867C266.887 685.357 267.968 685.819 269.093 686.251C270.074 686.626 271.041 687.044 271.992 687.506C272.944 687.968 273.795 688.544 274.545 689.237C275.324 689.929 275.93 690.78 276.363 691.79C276.824 692.799 277.055 694.054 277.055 695.554C277.055 697.198 276.637 698.698 275.8 700.054C274.992 701.41 273.824 702.477 272.295 703.256C270.766 704.035 268.949 704.424 266.843 704.424C265.459 704.424 264.132 704.266 262.863 703.948C261.622 703.631 260.468 703.227 259.401 702.737C258.334 702.218 257.382 701.684 256.545 701.136L258.406 697.847C259.098 698.338 259.891 698.814 260.786 699.275C261.68 699.708 262.617 700.069 263.598 700.357C264.579 700.617 265.531 700.746 266.454 700.746C267.435 700.746 268.401 700.573 269.353 700.227C270.334 699.852 271.141 699.29 271.776 698.54C272.411 697.79 272.728 696.794 272.728 695.554C272.728 694.487 272.44 693.607 271.863 692.915C271.315 692.194 270.579 691.588 269.656 691.097C268.733 690.578 267.752 690.117 266.714 689.713C265.733 689.338 264.738 688.934 263.728 688.501C262.718 688.04 261.781 687.492 260.916 686.857C260.05 686.194 259.358 685.386 258.839 684.434C258.319 683.482 258.06 682.328 258.06 680.972C258.06 679.328 258.449 677.9 259.228 676.689C260.036 675.448 261.132 674.482 262.516 673.79C263.901 673.069 265.488 672.679 267.276 672.621C269.295 672.621 271.069 672.867 272.598 673.357C274.156 673.847 275.526 674.453 276.709 675.174L275.108 678.376ZM289.821 686.165H293.845V704.078H289.821V686.165ZM289.518 679.674C289.518 679.04 289.763 678.506 290.253 678.073C290.773 677.641 291.335 677.424 291.941 677.424C292.547 677.424 293.08 677.641 293.542 678.073C294.032 678.506 294.277 679.04 294.277 679.674C294.277 680.338 294.032 680.886 293.542 681.319C293.08 681.722 292.547 681.924 291.941 681.924C291.335 681.924 290.773 681.708 290.253 681.275C289.763 680.843 289.518 680.309 289.518 679.674ZM316.124 712.948C314.797 712.948 313.629 712.79 312.62 712.472C311.61 712.184 310.687 711.766 309.85 711.218C309.043 710.669 308.264 710.049 307.514 709.357L309.85 706.631C310.802 707.525 311.769 708.218 312.749 708.708C313.73 709.198 314.826 709.444 316.038 709.444C317.394 709.444 318.533 709.213 319.456 708.751C320.408 708.319 321.129 707.698 321.62 706.891C322.11 706.112 322.355 705.203 322.355 704.165L322.398 699.319L322.745 700.097C322.225 701.338 321.288 702.391 319.932 703.256C318.576 704.093 316.932 704.511 314.999 704.511C313.355 704.511 311.841 704.093 310.456 703.256C309.1 702.419 308.004 701.294 307.168 699.881C306.36 698.439 305.956 696.823 305.956 695.035C305.956 693.16 306.389 691.516 307.254 690.102C308.12 688.66 309.259 687.52 310.672 686.684C312.086 685.847 313.629 685.429 315.302 685.429C316.889 685.429 318.331 685.761 319.629 686.424C320.956 687.059 321.922 687.881 322.528 688.891L322.312 689.626L322.745 686.165H326.422V704.208C326.422 705.823 326.004 707.294 325.168 708.621C324.331 709.948 323.148 711.001 321.62 711.78C320.091 712.559 318.259 712.948 316.124 712.948ZM309.98 694.948C309.98 696.102 310.254 697.155 310.802 698.107C311.35 699.059 312.086 699.809 313.009 700.357C313.961 700.905 315.014 701.179 316.168 701.179C317.235 701.179 318.187 700.992 319.023 700.617C319.889 700.213 320.61 699.679 321.187 699.016C321.764 698.323 322.168 697.53 322.398 696.636V693.088C322.139 692.222 321.706 691.472 321.1 690.838C320.495 690.174 319.773 689.669 318.937 689.323C318.1 688.948 317.177 688.761 316.168 688.761C315.014 688.761 313.961 689.02 313.009 689.54C312.086 690.059 311.35 690.794 310.802 691.746C310.254 692.669 309.98 693.737 309.98 694.948ZM343.672 686.165L344.018 690.535L343.845 689.843C344.422 688.516 345.359 687.463 346.658 686.684C347.956 685.876 349.456 685.472 351.158 685.472C352.859 685.472 354.244 685.977 355.311 686.987C356.408 687.968 356.97 689.251 356.999 690.838V704.078H352.932V692.266C352.903 691.285 352.614 690.492 352.066 689.886C351.547 689.251 350.725 688.934 349.6 688.934C348.561 688.934 347.624 689.222 346.787 689.799C345.951 690.376 345.287 691.169 344.797 692.179C344.335 693.189 344.105 694.357 344.105 695.684V704.078H340.081V686.165H343.672ZM378.146 704.511C376.473 704.511 374.944 704.15 373.56 703.429C372.204 702.708 371.122 701.655 370.314 700.27C369.535 698.857 369.146 697.141 369.146 695.121C369.146 693.131 369.564 691.415 370.401 689.972C371.237 688.501 372.348 687.376 373.733 686.597C375.146 685.819 376.689 685.429 378.362 685.429C380.035 685.429 381.449 685.819 382.603 686.597C383.757 687.347 384.636 688.242 385.242 689.28L384.983 689.972L385.372 686.165H389.093V704.078H385.069V699.405L385.502 700.444C385.386 700.732 385.127 701.107 384.723 701.569C384.348 702.001 383.829 702.448 383.165 702.91C382.531 703.371 381.795 703.761 380.959 704.078C380.122 704.367 379.185 704.511 378.146 704.511ZM379.228 701.179C380.237 701.179 381.146 700.992 381.954 700.617C382.761 700.242 383.425 699.722 383.944 699.059C384.492 698.367 384.867 697.544 385.069 696.593V693.088C384.838 692.222 384.435 691.472 383.858 690.838C383.281 690.174 382.588 689.669 381.781 689.323C380.973 688.948 380.079 688.761 379.098 688.761C378.031 688.761 377.05 689.02 376.156 689.54C375.261 690.059 374.54 690.78 373.992 691.703C373.473 692.626 373.213 693.708 373.213 694.948C373.213 696.102 373.487 697.155 374.035 698.107C374.584 699.059 375.319 699.809 376.242 700.357C377.165 700.905 378.16 701.179 379.228 701.179ZM404.494 678.29H408.518V686.251H413.451V689.41H408.518V704.078H404.494V689.41H401.206V686.251H404.494V678.29ZM430.688 704.77C429.073 704.77 427.732 704.28 426.664 703.299C425.626 702.29 425.078 700.992 425.02 699.405V686.165H429.044V697.977C429.102 698.958 429.376 699.751 429.866 700.357C430.386 700.963 431.193 701.28 432.289 701.309C433.299 701.309 434.193 701.02 434.972 700.444C435.78 699.838 436.429 699.03 436.919 698.02C437.41 696.982 437.655 695.814 437.655 694.516V686.165H441.679V704.078H438.001L437.655 699.665L437.871 700.444C437.525 701.28 436.991 702.03 436.27 702.694C435.578 703.328 434.756 703.833 433.804 704.208C432.852 704.583 431.813 704.77 430.688 704.77ZM458.939 686.165L459.328 691.357L459.112 690.665C459.573 689.569 460.237 688.645 461.102 687.895C461.997 687.117 462.92 686.525 463.872 686.121C464.852 685.689 465.703 685.472 466.424 685.472L466.208 689.453C464.852 689.367 463.655 689.626 462.617 690.232C461.607 690.838 460.799 691.645 460.194 692.655C459.617 693.665 459.328 694.746 459.328 695.9V704.078H455.348V686.165H458.939ZM485.87 704.511C483.821 704.511 482.062 704.107 480.591 703.299C479.12 702.463 477.98 701.338 477.172 699.924C476.394 698.482 476.004 696.838 476.004 694.992C476.004 693.232 476.451 691.631 477.346 690.189C478.24 688.746 479.437 687.593 480.937 686.727C482.437 685.862 484.11 685.429 485.956 685.429C488.321 685.429 490.283 686.121 491.841 687.506C493.398 688.891 494.451 690.794 494.999 693.218L480.245 698.41L479.293 696.03L491.408 691.617L490.543 692.179C490.196 691.227 489.62 690.405 488.812 689.713C488.004 688.992 486.951 688.631 485.653 688.631C484.557 688.631 483.576 688.905 482.711 689.453C481.846 689.972 481.168 690.694 480.677 691.617C480.187 692.54 479.942 693.593 479.942 694.775C479.942 696.016 480.201 697.112 480.721 698.064C481.24 698.987 481.946 699.722 482.841 700.27C483.764 700.79 484.802 701.049 485.956 701.049C486.735 701.049 487.485 700.905 488.206 700.617C488.956 700.328 489.648 699.953 490.283 699.492L492.144 702.477C491.249 703.083 490.24 703.573 489.115 703.948C488.019 704.323 486.937 704.511 485.87 704.511ZM510.383 700.314C509.748 701.814 509.114 703.299 508.479 704.77C507.873 706.27 507.253 707.785 506.618 709.314H503.373C503.95 707.785 504.513 706.27 505.061 704.77C505.609 703.299 506.171 701.814 506.748 700.314H510.383ZM541.69 688.458C541.69 686.294 542.093 684.261 542.901 682.357C543.738 680.424 544.891 678.722 546.363 677.251C547.834 675.751 549.521 674.583 551.425 673.746C553.358 672.881 555.435 672.448 557.656 672.448C559.848 672.448 561.896 672.881 563.8 673.746C565.733 674.583 567.435 675.751 568.906 677.251C570.406 678.722 571.574 680.424 572.411 682.357C573.247 684.261 573.666 686.294 573.666 688.458C573.666 690.679 573.247 692.756 572.411 694.689C571.574 696.621 570.406 698.323 568.906 699.794C567.435 701.237 565.733 702.376 563.8 703.213C561.896 704.02 559.848 704.424 557.656 704.424C555.435 704.424 553.358 704.02 551.425 703.213C549.521 702.405 547.834 701.28 546.363 699.838C544.891 698.395 543.738 696.708 542.901 694.775C542.093 692.843 541.69 690.737 541.69 688.458ZM546.016 688.501C546.016 690.145 546.319 691.689 546.925 693.131C547.531 694.544 548.367 695.799 549.435 696.895C550.502 697.992 551.742 698.857 553.156 699.492C554.569 700.097 556.098 700.4 557.742 700.4C559.358 700.4 560.872 700.097 562.286 699.492C563.699 698.857 564.925 697.992 565.964 696.895C567.002 695.799 567.824 694.544 568.43 693.131C569.036 691.689 569.339 690.131 569.339 688.458C569.339 686.814 569.036 685.27 568.43 683.828C567.824 682.357 566.988 681.073 565.92 679.977C564.853 678.881 563.613 678.03 562.199 677.424C560.786 676.79 559.271 676.472 557.656 676.472C556.012 676.472 554.483 676.79 553.069 677.424C551.656 678.059 550.416 678.924 549.348 680.02C548.281 681.117 547.459 682.4 546.882 683.871C546.305 685.314 546.016 686.857 546.016 688.501ZM590.04 686.165L590.386 690.535L590.213 689.843C590.79 688.516 591.727 687.463 593.025 686.684C594.323 685.876 595.823 685.472 597.525 685.472C599.227 685.472 600.612 685.977 601.679 686.987C602.775 687.968 603.338 689.251 603.366 690.838V704.078H599.299V692.266C599.27 691.285 598.982 690.492 598.434 689.886C597.915 689.251 597.092 688.934 595.967 688.934C594.929 688.934 593.991 689.222 593.155 689.799C592.318 690.376 591.655 691.169 591.165 692.179C590.703 693.189 590.472 694.357 590.472 695.684V704.078H586.448V686.165H590.04ZM638.464 672.794H658.8V676.819H642.661V686.338H657.07V690.362H642.661V700.054H659.406V704.078H638.464V672.794ZM679.671 704.597L669.719 686.165H674.479L681.229 700.4L678.762 700.314L684.95 686.165H689.45L679.887 704.597H679.671ZM708.375 704.511C706.327 704.511 704.567 704.107 703.096 703.299C701.625 702.463 700.485 701.338 699.678 699.924C698.899 698.482 698.509 696.838 698.509 694.992C698.509 693.232 698.957 691.631 699.851 690.189C700.745 688.746 701.942 687.593 703.442 686.727C704.942 685.862 706.615 685.429 708.461 685.429C710.827 685.429 712.788 686.121 714.346 687.506C715.904 688.891 716.957 690.794 717.505 693.218L702.75 698.41L701.798 696.03L713.913 691.617L713.048 692.179C712.702 691.227 712.125 690.405 711.317 689.713C710.509 688.992 709.457 688.631 708.158 688.631C707.062 688.631 706.082 688.905 705.216 689.453C704.351 689.972 703.673 690.694 703.183 691.617C702.692 692.54 702.447 693.593 702.447 694.775C702.447 696.016 702.707 697.112 703.226 698.064C703.745 698.987 704.452 699.722 705.346 700.27C706.269 700.79 707.308 701.049 708.461 701.049C709.24 701.049 709.99 700.905 710.711 700.617C711.461 700.328 712.154 699.953 712.788 699.492L714.649 702.477C713.755 703.083 712.745 703.573 711.62 703.948C710.524 704.323 709.442 704.511 708.375 704.511ZM732.845 686.165L733.234 691.357L733.018 690.665C733.48 689.569 734.143 688.645 735.008 687.895C735.903 687.117 736.826 686.525 737.778 686.121C738.758 685.689 739.609 685.472 740.331 685.472L740.114 689.453C738.758 689.367 737.561 689.626 736.523 690.232C735.513 690.838 734.706 691.645 734.1 692.655C733.523 693.665 733.234 694.746 733.234 695.9V704.078H729.254V686.165H732.845ZM753.743 712.689L765.555 686.165H769.277L757.724 712.689H753.743ZM758.156 704.208L749.546 686.165H754.089L761.315 702.174L758.156 704.208ZM809.757 672.794C812.901 672.794 815.368 673.444 817.156 674.742C818.973 676.011 819.882 678.001 819.882 680.713C819.882 682.357 819.507 683.785 818.757 684.996C818.007 686.208 816.954 687.16 815.598 687.852C814.271 688.544 812.699 688.934 810.882 689.02L810.276 686.857C812.382 686.915 814.271 687.29 815.945 687.982C817.618 688.674 818.945 689.641 819.925 690.881C820.906 692.121 821.396 693.593 821.396 695.294C821.396 696.852 821.108 698.194 820.531 699.319C819.954 700.415 819.175 701.323 818.195 702.044C817.214 702.737 816.103 703.256 814.863 703.602C813.622 703.919 812.339 704.078 811.012 704.078H801.709V672.794H809.757ZM810.622 686.511C812.353 686.511 813.608 686.035 814.387 685.083C815.166 684.102 815.555 682.919 815.555 681.535C815.555 679.891 815.05 678.694 814.041 677.944C813.031 677.194 811.675 676.819 809.973 676.819H805.906V686.511H810.622ZM810.795 700.184C811.949 700.184 813.002 700.011 813.954 699.665C814.935 699.319 815.699 698.785 816.247 698.064C816.824 697.343 817.113 696.434 817.113 695.338C817.113 694.126 816.781 693.174 816.118 692.482C815.483 691.79 814.661 691.299 813.651 691.011C812.642 690.694 811.603 690.535 810.536 690.535H805.906V700.184H810.795ZM832.61 694.948C832.61 693.16 833.029 691.544 833.865 690.102C834.73 688.66 835.913 687.52 837.413 686.684C838.913 685.847 840.615 685.429 842.519 685.429C844.48 685.429 846.197 685.847 847.668 686.684C849.139 687.52 850.279 688.66 851.086 690.102C851.894 691.544 852.298 693.16 852.298 694.948C852.298 696.737 851.894 698.367 851.086 699.838C850.279 701.28 849.125 702.419 847.625 703.256C846.154 704.093 844.437 704.511 842.476 704.511C840.572 704.511 838.87 704.121 837.37 703.343C835.899 702.535 834.73 701.424 833.865 700.011C833.029 698.569 832.61 696.881 832.61 694.948ZM836.634 694.992C836.634 696.145 836.894 697.198 837.413 698.15C837.932 699.073 838.625 699.809 839.49 700.357C840.384 700.905 841.365 701.179 842.432 701.179C843.557 701.179 844.553 700.905 845.418 700.357C846.312 699.809 847.004 699.073 847.495 698.15C847.985 697.198 848.23 696.145 848.23 694.992C848.23 693.838 847.985 692.799 847.495 691.876C847.004 690.924 846.312 690.174 845.418 689.626C844.553 689.049 843.557 688.761 842.432 688.761C841.336 688.761 840.341 689.049 839.447 689.626C838.581 690.203 837.889 690.968 837.37 691.919C836.879 692.843 836.634 693.867 836.634 694.992ZM866.184 678.29H870.208V686.251H875.14V689.41H870.208V704.078H866.184V689.41H862.895V686.251H866.184V678.29ZM888.44 678.29H892.464V686.251H897.397V689.41H892.464V704.078H888.44V689.41H885.152V686.251H888.44V678.29ZM908.966 670.588H912.99V704.078H908.966V670.588ZM934.967 704.511C932.919 704.511 931.159 704.107 929.688 703.299C928.217 702.463 927.078 701.338 926.27 699.924C925.491 698.482 925.102 696.838 925.102 694.992C925.102 693.232 925.549 691.631 926.443 690.189C927.337 688.746 928.534 687.593 930.034 686.727C931.534 685.862 933.207 685.429 935.054 685.429C937.419 685.429 939.38 686.121 940.938 687.506C942.496 688.891 943.549 690.794 944.097 693.218L929.342 698.41L928.39 696.03L940.505 691.617L939.64 692.179C939.294 691.227 938.717 690.405 937.909 689.713C937.102 688.992 936.049 688.631 934.751 688.631C933.654 688.631 932.674 688.905 931.808 689.453C930.943 689.972 930.265 690.694 929.775 691.617C929.284 692.54 929.039 693.593 929.039 694.775C929.039 696.016 929.299 697.112 929.818 698.064C930.337 698.987 931.044 699.722 931.938 700.27C932.861 700.79 933.9 701.049 935.054 701.049C935.832 701.049 936.582 700.905 937.304 700.617C938.054 700.328 938.746 699.953 939.38 699.492L941.241 702.477C940.347 703.083 939.337 703.573 938.212 703.948C937.116 704.323 936.034 704.511 934.967 704.511ZM953.812 701.785C953.812 701.15 954.043 700.617 954.504 700.184C954.995 699.722 955.528 699.492 956.105 699.492C956.625 699.492 957.115 699.722 957.577 700.184C958.067 700.617 958.312 701.15 958.312 701.785C958.312 702.477 958.067 703.04 957.577 703.472C957.115 703.876 956.625 704.078 956.105 704.078C955.528 704.078 954.995 703.876 954.504 703.472C954.043 703.04 953.812 702.477 953.812 701.785Z" fill="white"/>
<rect x="35.4806" y="35.4826" width="1010.77" height="1009.04" rx="504.519" stroke="#DD9951" stroke-width="1.73077"/>
<defs>
<clipPath id="clip0_179_1362">
<rect width="91.1077" height="96.9231" fill="white" transform="translate(494 364)"/>
</clipPath>
<clipPath id="clip1_179_1362">
<rect width="91.1077" height="96.9231" fill="white" transform="translate(494 364)"/>
</clipPath>
</defs>
</svg>
